PathFileType	4	(X/Y/Z)	C:/Users/beibeiliu/ov580/test_trc/User3\sequence.18_training_dense_left.trc
DataRate	CameraRate	NumFrames	NumMarkers	Units	OrigDataRate	OrigDataStartFrame	OrigNumFrames
120	120	7	19	mm	120	1	84
Frame#	Time	ThumbCMC			ThumbMCP			ThumbIP			ThumbTip			IndexMCP			IndexPIP			IndexTip			MiddleMCP			MiddlePIP			MiddleTip			RingMCP			RingPIP			RingTip			PinkyMCP			PinkyPIP			PinkyTip			BackHand1			BackHand2			BackHand3	
		X0	Y0	Z0	X1	Y1	Z1	X2	Y2	Z2	X3	Y3	Z3	X4	Y4	Z4	X5	Y5	Z5	X6	Y6	Z6	X7	Y7	Z7	X8	Y8	Z8	X9	Y9	Z9	X10	Y10	Z10	X11	Y11	Z11	X12	Y12	Z12	X13	Y13	Z13	X14	Y14	Z14	X15	Y15	Z15	X16	Y16	Z16	X17	Y17	Z17	X18	Y18	Z18	
0	0	-250.572	-53.1129	9.55826	-250.213	-36.436	-23.3052	-239.588	-29.343	-54.0583	-209.44	-34.2767	-67.1002	-244.331	-87.9359	-59.7738	-251.058	-86.6478	-84.5826	-255.057	-88.1303	-114.19	-220.808	-68.5166	-66.2103	-216.153	-36.2372	-65.3568	-215.765	-46.6602	-27.0942	-202.658	-61.5125	-58.1129	-199.878	-33.7478	-50.9873	-205.177	-41.7587	-17.698	-182.146	-59.7026	-47.6875	-186.536	-37.097	-37.8939	-196.039	-50.4531	-11.1736	-202.47	-98.1496	-11.7729	-199.642	-93.1611	25.1418	-233.396	-91.3585	6.76916	
1	0.00833333	-251.216	-66.9611	13.3937	-254.612	-55.1091	-20.4529	-243.124	-54.8295	-48.2364	-218.14	-59.7455	-64.5078	-252.542	-113.442	-48.0859	-260.105	-118.54	-75.536	-264.586	-120.935	-102.654	-229.74	-92.195	-60.4932	-224.833	-63.121	-64.7347	-220.509	-64.6821	-23.5132	-206.039	-88.9573	-52.4356	-207.221	-58.881	-49.9248	-211.448	-63.4433	-12.5838	-190.686	-88.1964	-41.5737	-193.425	-58.5814	-35.2832	-197.591	-65.5372	-8.09271	-205.594	-114.548	1.44561	-204.244	-107.379	31.5819	-238.522	-104.666	15.6816	
2	0.0166667	-253.866	-70.2486	20.3426	-257.486	-61.7114	-12.8364	-249.758	-64.7911	-48.5567	-229.22	-71.2294	-58.9854	-268.049	-123.956	-39.562	-271.419	-130.928	-61.2575	-281.217	-134.792	-85.7102	-237.254	-108.284	-50.448	-232.281	-77.1218	-59.4758	-228.929	-71.6816	-20.6228	-220.224	-104.012	-44.0889	-213.664	-71.265	-43.1469	-215.109	-73.9594	-10.0662	-198.571	-102.764	-38.7524	-198.11	-73.8553	-35.5686	-202.633	-76.9139	-7.61723	-213.08	-124.43	9.55723	-210.098	-111.928	38.0454	-242.579	-108.788	26.901	
3	0.025	-258.702	-61.6952	20.3437	-257.403	-54.9548	-11.0104	-251.737	-57.6914	-42.1741	-233.601	-66.5324	-56.361	-276.803	-114.809	-32.2857	-289.618	-120.876	-56.3644	-290.746	-125.693	-77.6092	-249.38	-103.135	-43.4424	-236.808	-72.6272	-54.3829	-229.629	-68.8863	-17.1365	-229.617	-99.7386	-41.3672	-217.076	-71.014	-40.5953	-218.435	-68.2243	-10.2574	-211.533	-103.502	-31.8445	-206.893	-74.7039	-34.494	-205.722	-73.5033	-3.6752	-225.464	-120.61	11.9227	-214.49	-110.75	41.4349	-251.882	-101.694	30.1079	
4	0.0333333	-249.103	-41.8878	26.8291	-250.428	-33.5805	-10.1096	-245.811	-34.3204	-40.0147	-228.424	-52.7393	-55.6929	-286.58	-83.0947	-26.4909	-296.505	-87.2003	-49.7914	-305.169	-88.2027	-74.7819	-257.025	-78.2046	-45.7074	-236.523	-52.8191	-49.0753	-228.357	-51.4362	-14.5859	-231.439	-85.949	-38.0391	-216.338	-57.3675	-36.2748	-217.313	-59.7394	-3.25438	-214.454	-92.1685	-32.6632	-208.27	-66.6483	-31.8559	-205.506	-64.9935	-0.259515	-237.534	-107.273	15.3093	-229.357	-96.8965	43.4597	-256.624	-80.4986	32.2444	
5	0.0416667	-234.892	-17.9645	25.9395	-229.766	-9.62553	-6.20285	-226.824	-15.6193	-38.5107	-217.277	-37.1898	-52.8669	-283.316	-36.8247	-23.9272	-293.023	-38.9413	-52.772	-300.593	-33.6715	-73.445	-252.891	-49.576	-42.4724	-227.078	-32.6754	-48.5706	-217.764	-37.7322	-11.7343	-234.243	-63.9602	-35.5761	-207.74	-46.7942	-32.0804	-208.617	-46.8776	-1.25505	-223.966	-75.1635	-29.8495	-205.445	-56.717	-28.8606	-203.574	-57.3314	2.50349	-250.098	-78.2723	20.2756	-236.021	-77.7038	46.5216	-257.054	-46.397	36.0773	
6	0.05	-212.087	1.33594	28.2683	-202.958	6.61329	-5.95964	-200.22	-2.20827	-32.5251	-203.404	-24.9882	-47.527	-266.027	-1.09466	-27.3994	-271.665	7.94351	-46.7576	-278.532	10.7351	-71.6279	-241.51	-22.7576	-41.2778	-212.998	-16.7858	-47.8111	-205.136	-24.2551	-7.2374	-232.759	-38.6688	-31.503	-200.996	-36.9614	-31.4127	-202.12	-33.5007	4.53467	-223.967	-59.0439	-28.4729	-197.917	-48.1117	-20.8079	-201.369	-48.7363	7.62918	-249.66	-48.7054	21.0767	-237.896	-57.1577	49.1111	-245.439	-21.5758	39.3241	
